<svg xmlns="http://www.w3.org/2000/svg" viewBox="0 0 360 300" width="360" height="300"><defs></defs>
<g transform="translate(80,28) scale(1.0)"><path d="M 0 122 L 18 101 L 34 109 L 50 74 L 64 88 L 78 53 L 92 41 L 100 18 L 110 47 L 124 38 L 140 67 L 156 55 L 172 83 L 188 101 L 200 118" fill="none" stroke="#2E6E4E" stroke-width="2.1" stroke-linecap="round" stroke-linejoin="round" opacity="0.6"></path><circle cx="2.3" cy="136.9" r="2.12" fill="#13261F" opacity="0.92"></circle><circle cx="104.3" cy="38.8" r="1.38" fill="#13261F" opacity="0.92"></circle><circle cx="110.7" cy="73.2" r="1.25" fill="#13261F" opacity="0.61"></circle><circle cx="152.8" cy="75.6" r="1.59" fill="#13261F" opacity="0.66"></circle><circle cx="58.6" cy="102.6" r="2.56" fill="#13261F" opacity="0.58"></circle><circle cx="49.5" cy="89.4" r="1.23" fill="#13261F" opacity="0.66"></circle><circle cx="30.9" cy="117.3" r="2.22" fill="#13261F" opacity="0.92"></circle><circle cx="14.9" cy="129.7" r="1.99" fill="#13261F" opacity="0.42"></circle><circle cx="136" cy="51.9" r="2.47" fill="#13261F" opacity="0.45"></circle><circle cx="165.5" cy="74.8" r="1.57" fill="#13261F" opacity="0.92"></circle><circle cx="85.1" cy="48.5" r="2.23" fill="#13261F" opacity="0.92"></circle><circle cx="73.8" cy="72" r="2.51" fill="#13261F" opacity="0.92"></circle><circle cx="140.7" cy="94.1" r="1.57" fill="#13261F" opacity="0.55"></circle><circle cx="27.8" cy="122.3" r="1.52" fill="#13261F" opacity="0.92"></circle><circle cx="38.1" cy="116.9" r="1.07" fill="#13261F" opacity="0.54"></circle><circle cx="136.9" cy="54.4" r="2.32" fill="#13261F" opacity="0.45"></circle><circle cx="131" cy="62.4" r="1.85" fill="#13261F" opacity="0.72"></circle><circle cx="129.8" cy="146" r="2.34" fill="#13261F" opacity="0.42"></circle><circle cx="118.8" cy="29.1" r="1.88" fill="#13261F" opacity="0.45"></circle><circle cx="163.7" cy="77.8" r="1.52" fill="#13261F" opacity="0.92"></circle><circle cx="144.9" cy="128.8" r="2.56" fill="#13261F" opacity="0.42"></circle><circle cx="111.5" cy="90.7" r="2.03" fill="#13261F" opacity="0.47"></circle><circle cx="147.7" cy="89" r="1.38" fill="#13261F" opacity="0.56"></circle><circle cx="1.9" cy="136.8" r="2.33" fill="#13261F" opacity="0.92"></circle><circle cx="126.1" cy="53" r="1.95" fill="#13261F" opacity="0.92"></circle><circle cx="143.4" cy="61" r="2.58" fill="#13261F" opacity="0.45"></circle><circle cx="130" cy="112" r="2.33" fill="#13261F" opacity="0.42"></circle><circle cx="27.8" cy="99.5" r="1.91" fill="#13261F" opacity="0.45"></circle><circle cx="32.2" cy="111.9" r="2.3" fill="#13261F" opacity="0.92"></circle><circle cx="172.3" cy="127.2" r="2.58" fill="#13261F" opacity="0.42"></circle><circle cx="121.9" cy="145.1" r="1.78" fill="#13261F" opacity="0.42"></circle><circle cx="46" cy="136.3" r="2.37" fill="#13261F" opacity="0.42"></circle><circle cx="38" cy="124" r="1.84" fill="#13261F" opacity="0.43"></circle><circle cx="36" cy="112.4" r="1.76" fill="#13261F" opacity="0.92"></circle><circle cx="34.2" cy="111.7" r="1.04" fill="#13261F" opacity="0.92"></circle><circle cx="21.4" cy="149.2" r="1.1" fill="#13261F" opacity="0.42"></circle><circle cx="34.9" cy="116" r="2.17" fill="#13261F" opacity="0.92"></circle><circle cx="73.6" cy="78.1" r="2.14" fill="#13261F" opacity="0.92"></circle><circle cx="160" cy="132.3" r="1.66" fill="#13261F" opacity="0.42"></circle><circle cx="112.5" cy="54.9" r="2.24" fill="#13261F" opacity="0.92"></circle><circle cx="16" cy="118.2" r="2.32" fill="#13261F" opacity="0.92"></circle><circle cx="154.9" cy="62.2" r="2.47" fill="#13261F" opacity="0.92"></circle><circle cx="50.3" cy="82.9" r="2.33" fill="#13261F" opacity="0.92"></circle><circle cx="80.8" cy="43.6" r="1.7" fill="#13261F" opacity="0.45"></circle><circle cx="67.7" cy="99.6" r="2.41" fill="#13261F" opacity="0.58"></circle><circle cx="114.5" cy="33.5" r="1.79" fill="#13261F" opacity="0.45"></circle><circle cx="87.4" cy="142.8" r="1.88" fill="#13261F" opacity="0.42"></circle><circle cx="131.5" cy="64" r="1.63" fill="#13261F" opacity="0.92"></circle><circle cx="121.9" cy="81.8" r="1.47" fill="#13261F" opacity="0.51"></circle><circle cx="18.1" cy="136.9" r="2.54" fill="#13261F" opacity="0.42"></circle><circle cx="63.5" cy="88.7" r="2.15" fill="#13261F" opacity="0.92"></circle><circle cx="185.2" cy="141.1" r="2.54" fill="#13261F" opacity="0.42"></circle><circle cx="45.3" cy="80.7" r="1.86" fill="#13261F" opacity="0.45"></circle><circle cx="78.2" cy="126.7" r="2" fill="#13261F" opacity="0.42"></circle><circle cx="145.1" cy="114.8" r="1.44" fill="#13261F" opacity="0.42"></circle><circle cx="166.4" cy="75.7" r="2.16" fill="#13261F" opacity="0.92"></circle><circle cx="92.8" cy="100.1" r="2.42" fill="#13261F" opacity="0.42"></circle><circle cx="190.6" cy="106.5" r="1.46" fill="#13261F" opacity="0.92"></circle><circle cx="104.8" cy="48.2" r="2.37" fill="#13261F" opacity="0.92"></circle><circle cx="106" cy="67.4" r="1.79" fill="#13261F" opacity="0.59"></circle><circle cx="185.2" cy="139.3" r="1.53" fill="#13261F" opacity="0.42"></circle><circle cx="181.9" cy="83.5" r="1" fill="#13261F" opacity="0.45"></circle><circle cx="33.5" cy="113.1" r="1.13" fill="#13261F" opacity="0.73"></circle><circle cx="182.4" cy="105.3" r="1.42" fill="#13261F" opacity="0.92"></circle><circle cx="158.8" cy="65.1" r="1.71" fill="#13261F" opacity="0.77"></circle><circle cx="195.9" cy="113.7" r="1.61" fill="#13261F" opacity="0.92"></circle><circle cx="157.8" cy="83.2" r="1.8" fill="#13261F" opacity="0.6"></circle><circle cx="21.3" cy="110.5" r="1.87" fill="#13261F" opacity="0.92"></circle><circle cx="33.6" cy="121.3" r="2.11" fill="#13261F" opacity="0.57"></circle><circle cx="166.5" cy="76.6" r="2.15" fill="#13261F" opacity="0.92"></circle><circle cx="178.6" cy="105.5" r="2.03" fill="#13261F" opacity="0.92"></circle><circle cx="64.5" cy="88.7" r="2.58" fill="#13261F" opacity="0.92"></circle><circle cx="138.7" cy="73.9" r="1.11" fill="#13261F" opacity="0.92"></circle><circle cx="103.2" cy="41.3" r="1.26" fill="#13261F" opacity="0.92"></circle><circle cx="148.2" cy="65.1" r="1.33" fill="#13261F" opacity="0.92"></circle><circle cx="176.1" cy="88.2" r="2.5" fill="#13261F" opacity="0.92"></circle><circle cx="184.2" cy="107.1" r="2.13" fill="#13261F" opacity="0.92"></circle><circle cx="34.1" cy="111.8" r="1.95" fill="#13261F" opacity="0.76"></circle><circle cx="144.3" cy="69.8" r="1.91" fill="#13261F" opacity="0.76"></circle><circle cx="74.1" cy="79.4" r="1.44" fill="#13261F" opacity="0.92"></circle><circle cx="31" cy="113.8" r="2.27" fill="#13261F" opacity="0.92"></circle><circle cx="164.7" cy="131.9" r="2.13" fill="#13261F" opacity="0.42"></circle><circle cx="173" cy="130.4" r="2.1" fill="#13261F" opacity="0.42"></circle><circle cx="61.7" cy="97.6" r="1.52" fill="#13261F" opacity="0.92"></circle><circle cx="48.3" cy="88.4" r="2.08" fill="#13261F" opacity="0.92"></circle><circle cx="85.3" cy="71.7" r="2.18" fill="#13261F" opacity="0.62"></circle><circle cx="103.9" cy="36.4" r="2.3" fill="#13261F" opacity="0.92"></circle><circle cx="24.9" cy="129.1" r="2.06" fill="#13261F" opacity="0.42"></circle><circle cx="125.4" cy="48.1" r="2.51" fill="#13261F" opacity="0.92"></circle><circle cx="142.5" cy="124.1" r="1.51" fill="#13261F" opacity="0.42"></circle><circle cx="195.1" cy="124.8" r="1.71" fill="#13261F" opacity="0.92"></circle><circle cx="44.9" cy="89.2" r="2.37" fill="#13261F" opacity="0.92"></circle><circle cx="199.9" cy="148.2" r="1.27" fill="#13261F" opacity="0.42"></circle><circle cx="96.3" cy="29.3" r="2.12" fill="#13261F" opacity="0.92"></circle><circle cx="152.5" cy="57.7" r="1.77" fill="#13261F" opacity="0.92"></circle><circle cx="133" cy="63.9" r="2.5" fill="#13261F" opacity="0.92"></circle><circle cx="58.8" cy="129.5" r="1.48" fill="#13261F" opacity="0.42"></circle><circle cx="20.8" cy="108.1" r="1.87" fill="#13261F" opacity="0.72"></circle><circle cx="90.7" cy="130.5" r="2.19" fill="#13261F" opacity="0.42"></circle><circle cx="115" cy="99.8" r="2.2" fill="#13261F" opacity="0.42"></circle><circle cx="122.7" cy="105.5" r="2.08" fill="#13261F" opacity="0.42"></circle><circle cx="152.7" cy="138.6" r="2.37" fill="#13261F" opacity="0.42"></circle><circle cx="134.9" cy="71.7" r="1.41" fill="#13261F" opacity="0.7"></circle><circle cx="198.9" cy="132.7" r="1.06" fill="#13261F" opacity="0.92"></circle><circle cx="149.4" cy="134.2" r="1.43" fill="#13261F" opacity="0.42"></circle><circle cx="36.6" cy="115.9" r="2.03" fill="#13261F" opacity="0.92"></circle><circle cx="65.6" cy="89.5" r="2.5" fill="#13261F" opacity="0.92"></circle><circle cx="18.9" cy="106" r="2.17" fill="#13261F" opacity="0.92"></circle><circle cx="0.1" cy="122" r="2.56" fill="#13261F" opacity="0.82"></circle><circle cx="101.6" cy="14.9" r="1.62" fill="#13261F" opacity="0.45"></circle><circle cx="154" cy="63.1" r="2.06" fill="#13261F" opacity="0.92"></circle><circle cx="153" cy="125.7" r="1.61" fill="#13261F" opacity="0.42"></circle><circle cx="122.8" cy="39.9" r="1.64" fill="#13261F" opacity="0.92"></circle><circle cx="45" cy="95.5" r="1.52" fill="#13261F" opacity="0.69"></circle><circle cx="19.5" cy="118.6" r="2.42" fill="#13261F" opacity="0.92"></circle><circle cx="116.8" cy="135.2" r="1.02" fill="#13261F" opacity="0.42"></circle><circle cx="39.3" cy="104.8" r="1.74" fill="#13261F" opacity="0.92"></circle><circle cx="30.5" cy="113.9" r="1.01" fill="#13261F" opacity="0.92"></circle><circle cx="1.2" cy="133.1" r="1.48" fill="#13261F" opacity="0.47"></circle><circle cx="8.6" cy="125.9" r="2.38" fill="#13261F" opacity="0.92"></circle><circle cx="108.3" cy="148.5" r="2.54" fill="#13261F" opacity="0.42"></circle><circle cx="66.7" cy="137.4" r="2.28" fill="#13261F" opacity="0.42"></circle><circle cx="187.3" cy="135.4" r="1.51" fill="#13261F" opacity="0.42"></circle><circle cx="60.6" cy="106.9" r="2.22" fill="#13261F" opacity="0.54"></circle><circle cx="12.3" cy="132.1" r="1.38" fill="#13261F" opacity="0.42"></circle><circle cx="91.7" cy="139.7" r="1.48" fill="#13261F" opacity="0.42"></circle><circle cx="2.8" cy="133.8" r="1.07" fill="#13261F" opacity="0.43"></circle><circle cx="10" cy="113.6" r="2.08" fill="#13261F" opacity="0.92"></circle><circle cx="146.7" cy="129.9" r="2.25" fill="#13261F" opacity="0.42"></circle><circle cx="100.7" cy="8.5" r="1.85" fill="#13261F" opacity="0.45"></circle><circle cx="189.1" cy="98.3" r="2.46" fill="#13261F" opacity="0.45"></circle><circle cx="159.1" cy="67.6" r="1.45" fill="#13261F" opacity="0.92"></circle><circle cx="99.4" cy="10.6" r="1.55" fill="#13261F" opacity="0.45"></circle><circle cx="152.2" cy="116.2" r="2.15" fill="#13261F" opacity="0.42"></circle><circle cx="124.1" cy="47.5" r="2.26" fill="#13261F" opacity="0.75"></circle><circle cx="183.6" cy="103.3" r="2.18" fill="#13261F" opacity="0.92"></circle><circle cx="155.5" cy="95.6" r="2.51" fill="#13261F" opacity="0.47"></circle><circle cx="198.1" cy="127.1" r="1.38" fill="#13261F" opacity="0.92"></circle><circle cx="114" cy="54.2" r="1.65" fill="#13261F" opacity="0.92"></circle><circle cx="135.6" cy="135.3" r="1.16" fill="#13261F" opacity="0.42"></circle><circle cx="38.7" cy="102.5" r="2.31" fill="#13261F" opacity="0.76"></circle><circle cx="63.5" cy="109.1" r="2.3" fill="#13261F" opacity="0.54"></circle><circle cx="44.2" cy="95.1" r="1.97" fill="#13261F" opacity="0.92"></circle><circle cx="20.4" cy="101.4" r="2" fill="#13261F" opacity="0.45"></circle><circle cx="102.7" cy="40.3" r="2.49" fill="#13261F" opacity="0.92"></circle><circle cx="134.5" cy="60.4" r="1.94" fill="#13261F" opacity="0.92"></circle><circle cx="45.1" cy="92.7" r="1.27" fill="#13261F" opacity="0.92"></circle><circle cx="20.8" cy="114.8" r="2.52" fill="#13261F" opacity="0.92"></circle><circle cx="130.8" cy="97.1" r="1.56" fill="#13261F" opacity="0.43"></circle><circle cx="17.3" cy="112.1" r="1.99" fill="#13261F" opacity="0.92"></circle><circle cx="179" cy="95.5" r="1.11" fill="#13261F" opacity="0.92"></circle><circle cx="97.8" cy="141.6" r="1.13" fill="#13261F" opacity="0.42"></circle><circle cx="153.9" cy="50.9" r="2.41" fill="#13261F" opacity="0.45"></circle><circle cx="167.3" cy="75.7" r="1.39" fill="#13261F" opacity="0.92"></circle><circle cx="161.8" cy="71.8" r="2.27" fill="#13261F" opacity="0.92"></circle><circle cx="135.5" cy="68.1" r="2.25" fill="#13261F" opacity="0.92"></circle><circle cx="139.6" cy="90.5" r="1.3" fill="#13261F" opacity="0.58"></circle><circle cx="189.7" cy="120.7" r="1.79" fill="#13261F" opacity="0.52"></circle><circle cx="124.1" cy="49.1" r="1.09" fill="#13261F" opacity="0.74"></circle><circle cx="52.4" cy="137.3" r="2.55" fill="#13261F" opacity="0.42"></circle><circle cx="157.8" cy="64" r="1.6" fill="#13261F" opacity="0.92"></circle><circle cx="18.5" cy="104.7" r="1.18" fill="#13261F" opacity="0.92"></circle><circle cx="66.8" cy="98.9" r="2.01" fill="#13261F" opacity="0.61"></circle><circle cx="189.1" cy="101.6" r="2.48" fill="#13261F" opacity="0.45"></circle><circle cx="167.2" cy="140.6" r="1.72" fill="#13261F" opacity="0.42"></circle><circle cx="157.2" cy="134.2" r="1.54" fill="#13261F" opacity="0.42"></circle><circle cx="27" cy="106.5" r="1.04" fill="#13261F" opacity="0.92"></circle><circle cx="156.1" cy="59.1" r="1.69" fill="#13261F" opacity="0.92"></circle><circle cx="48" cy="69.5" r="1.57" fill="#13261F" opacity="0.45"></circle><circle cx="196.3" cy="117.3" r="1.95" fill="#13261F" opacity="0.92"></circle><circle cx="100.3" cy="8.5" r="1.07" fill="#13261F" opacity="0.45"></circle><circle cx="173.7" cy="74.9" r="1.02" fill="#13261F" opacity="0.45"></circle><circle cx="92.6" cy="48.4" r="1.09" fill="#13261F" opacity="0.92"></circle><circle cx="31.7" cy="113.6" r="1.23" fill="#13261F" opacity="0.71"></circle><circle cx="111.6" cy="92.1" r="2.41" fill="#13261F" opacity="0.46"></circle><circle cx="185.2" cy="98" r="1.06" fill="#13261F" opacity="0.92"></circle><circle cx="92.6" cy="28.4" r="1.76" fill="#13261F" opacity="0.45"></circle><circle cx="102.5" cy="120.9" r="1.64" fill="#13261F" opacity="0.42"></circle><circle cx="14.3" cy="112.5" r="1.23" fill="#13261F" opacity="0.69"></circle><circle cx="98" cy="24.5" r="1.4" fill="#13261F" opacity="0.82"></circle></g>
<text x="172" y="238" text-anchor="end" font-family="&#39;Space Grotesk&#39;,sans-serif" font-weight="700" font-size="62" letter-spacing="-2.6" fill="#13261F">JEDE</text>
<text x="182" y="238" font-family="&#39;IBM Plex Mono&#39;,monospace" font-weight="500" font-size="24" fill="#4C9A8E">VIII</text>
<text x="180" y="266" text-anchor="middle" font-family="&#39;IBM Plex Sans&#39;,sans-serif" font-weight="500" font-size="11" letter-spacing="2" fill="#6b7a72">DEx &amp; BIOESTADÍSTICA</text>
</svg>