<svg xmlns="http://www.w3.org/2000/svg" viewBox="0 0 1600 600" width="1600" height="600"><defs></defs>
<defs><linearGradient id="scrim" x1="0" y1="0" x2="1" y2="0">
<stop offset="0" stop-color="#13261F" stop-opacity="1"></stop><stop offset="0.26" stop-color="#13261F" stop-opacity="0.97"></stop><stop offset="0.42" stop-color="#13261F" stop-opacity="0.82"></stop><stop offset="0.58" stop-color="#13261F" stop-opacity="0.30"></stop><stop offset="0.72" stop-color="#13261F" stop-opacity="0"></stop></linearGradient></defs>
<rect width="1600" height="600" fill="#13261F"></rect>
<path d="M 0 438 L 120 372 L 240 410 L 360 302 L 470 354 L 580 270 L 700 322 L 820 220 L 930 272 L 1040 120 L 1120 182 L 1230 232 L 1350 184 L 1470 270 L 1600 330 L 1600 390 L 1470 330 L 1350 244 L 1230 292 L 1120 242 L 1040 180 L 930 332 L 820 280 L 700 382 L 580 330 L 470 414 L 360 362 L 240 470 L 120 432 L 0 498 Z" fill="#4C9A8E" opacity="0.10"></path>
<path d="M 0 468 L 120 402 L 240 440 L 360 332 L 470 384 L 580 300 L 700 352 L 820 250 L 930 302 L 1040 150 L 1120 212 L 1230 262 L 1350 214 L 1470 300 L 1600 360" fill="none" stroke="#7FBFB0" stroke-width="2" stroke-linecap="round" stroke-linejoin="round" opacity="0.55"></path>
<circle cx="93.7" cy="437.3" r="2.89" fill="#6FC0B0" opacity="0.92"></circle><circle cx="1578.5" cy="380.2" r="2.42" fill="#BFD2C8" opacity="0.92"></circle><circle cx="847.5" cy="301.3" r="2.32" fill="#BFD2C8" opacity="0.73"></circle><circle cx="922.8" cy="325.1" r="1.48" fill="#BFD2C8" opacity="0.92"></circle><circle cx="152.5" cy="546.3" r="3.05" fill="#BFD2C8" opacity="0.24"></circle><circle cx="747.2" cy="315.3" r="1.59" fill="#6FC0B0" opacity="0.92"></circle><circle cx="973" cy="250.2" r="3.15" fill="#BFD2C8" opacity="0.92"></circle><circle cx="432.8" cy="336" r="2.3" fill="#BFD2C8" opacity="0.45"></circle><circle cx="246.9" cy="476" r="3.12" fill="#BFD2C8" opacity="0.92"></circle><circle cx="2.3" cy="509.7" r="3.27" fill="#BFD2C8" opacity="0.92"></circle><circle cx="789.2" cy="285.3" r="1.91" fill="#6FC0B0" opacity="0.92"></circle><circle cx="1357.4" cy="236.7" r="2.37" fill="#BFD2C8" opacity="0.92"></circle><circle cx="834.7" cy="240.8" r="1.77" fill="#BFD2C8" opacity="0.45"></circle><circle cx="164.7" cy="527.6" r="2.91" fill="#BFD2C8" opacity="0.32"></circle><circle cx="1421.5" cy="280.3" r="2.29" fill="#BFD2C8" opacity="0.92"></circle><circle cx="231.9" cy="474.7" r="1.69" fill="#6FC0B0" opacity="0.92"></circle><circle cx="909.2" cy="293.6" r="1.92" fill="#BFD2C8" opacity="0.92"></circle><circle cx="1033.9" cy="209.8" r="2.58" fill="#BFD2C8" opacity="0.72"></circle><circle cx="1039.8" cy="177.4" r="1.85" fill="#BFD2C8" opacity="0.92"></circle><circle cx="182" cy="460.1" r="3.26" fill="#BFD2C8" opacity="0.92"></circle><circle cx="710.8" cy="382.5" r="2.12" fill="#6FC0B0" opacity="0.69"></circle><circle cx="882.2" cy="283.6" r="1.36" fill="#BFD2C8" opacity="0.92"></circle><circle cx="1407.9" cy="241.4" r="2.4" fill="#BFD2C8" opacity="0.45"></circle><circle cx="1005.2" cy="237.9" r="1.36" fill="#BFD2C8" opacity="0.92"></circle><circle cx="930.4" cy="329.7" r="2.44" fill="#BFD2C8" opacity="0.92"></circle><circle cx="1256.5" cy="547.6" r="1.56" fill="#6FC0B0" opacity="0.24"></circle><circle cx="1348.9" cy="519.5" r="2.55" fill="#BFD2C8" opacity="0.24"></circle><circle cx="135.1" cy="484.8" r="3.05" fill="#BFD2C8" opacity="0.49"></circle><circle cx="857.1" cy="276.8" r="2.96" fill="#BFD2C8" opacity="0.92"></circle><circle cx="1527.7" cy="370.5" r="1.74" fill="#BFD2C8" opacity="0.92"></circle><circle cx="92.5" cy="548.7" r="2.3" fill="#6FC0B0" opacity="0.24"></circle><circle cx="1119.9" cy="412.5" r="2.45" fill="#BFD2C8" opacity="0.4"></circle><circle cx="940.4" cy="296.5" r="1.81" fill="#BFD2C8" opacity="0.92"></circle><circle cx="142.4" cy="455.9" r="1.95" fill="#BFD2C8" opacity="0.62"></circle><circle cx="135.9" cy="410.5" r="2" fill="#BFD2C8" opacity="0.92"></circle><circle cx="200.1" cy="555.4" r="3.02" fill="#6FC0B0" opacity="0.24"></circle><circle cx="410.2" cy="401.6" r="2.29" fill="#BFD2C8" opacity="0.92"></circle><circle cx="898" cy="502.6" r="1.66" fill="#BFD2C8" opacity="0.26"></circle><circle cx="799.7" cy="267.8" r="3.09" fill="#BFD2C8" opacity="0.92"></circle><circle cx="1162.7" cy="276.1" r="2.59" fill="#BFD2C8" opacity="0.92"></circle><circle cx="1397.3" cy="292.1" r="1.76" fill="#6FC0B0" opacity="0.92"></circle><circle cx="974.2" cy="435.5" r="3.39" fill="#BFD2C8" opacity="0.38"></circle><circle cx="923.9" cy="590.9" r="1.93" fill="#BFD2C8" opacity="0.24"></circle><circle cx="1114.9" cy="230.8" r="2.44" fill="#BFD2C8" opacity="0.92"></circle><circle cx="1219.3" cy="273.7" r="3.04" fill="#BFD2C8" opacity="0.92"></circle><circle cx="1027" cy="153.7" r="1.9" fill="#6FC0B0" opacity="0.45"></circle><circle cx="1310.4" cy="246.6" r="2.48" fill="#BFD2C8" opacity="0.92"></circle><circle cx="112.5" cy="410" r="2.47" fill="#BFD2C8" opacity="0.92"></circle><circle cx="1557.3" cy="384.9" r="1.48" fill="#BFD2C8" opacity="0.92"></circle><circle cx="1501.6" cy="315.9" r="3.26" fill="#BFD2C8" opacity="0.92"></circle><circle cx="845.3" cy="280.6" r="3.02" fill="#6FC0B0" opacity="0.92"></circle><circle cx="1469.6" cy="325.3" r="1.55" fill="#BFD2C8" opacity="0.92"></circle><circle cx="773" cy="302.3" r="3.16" fill="#BFD2C8" opacity="0.92"></circle><circle cx="1217.9" cy="478.8" r="1.8" fill="#BFD2C8" opacity="0.29"></circle><circle cx="142.2" cy="531" r="3.24" fill="#BFD2C8" opacity="0.3"></circle><circle cx="1064.5" cy="183.9" r="1.77" fill="#6FC0B0" opacity="0.92"></circle><circle cx="1269.5" cy="255.3" r="1.49" fill="#BFD2C8" opacity="0.92"></circle><circle cx="1545" cy="377.4" r="2.79" fill="#BFD2C8" opacity="0.92"></circle><circle cx="1188.6" cy="250.9" r="1.7" fill="#BFD2C8" opacity="0.92"></circle><circle cx="1304.1" cy="395.5" r="2.47" fill="#BFD2C8" opacity="0.46"></circle><circle cx="1209.3" cy="406.4" r="3.29" fill="#6FC0B0" opacity="0.46"></circle><circle cx="531.3" cy="543.4" r="1.95" fill="#BFD2C8" opacity="0.24"></circle><circle cx="822.6" cy="286.3" r="1.84" fill="#BFD2C8" opacity="0.92"></circle><circle cx="508.9" cy="396.7" r="1.82" fill="#BFD2C8" opacity="0.92"></circle><circle cx="1194.1" cy="268.6" r="2.57" fill="#BFD2C8" opacity="0.92"></circle><circle cx="95.8" cy="422.7" r="1.33" fill="#6FC0B0" opacity="0.92"></circle><circle cx="381.9" cy="349.7" r="2.25" fill="#BFD2C8" opacity="0.92"></circle><circle cx="744.2" cy="573.7" r="2.76" fill="#BFD2C8" opacity="0.24"></circle><circle cx="382.1" cy="366.8" r="3.39" fill="#BFD2C8" opacity="0.74"></circle><circle cx="507" cy="396.4" r="2.75" fill="#BFD2C8" opacity="0.68"></circle><circle cx="1381.9" cy="248.8" r="1.34" fill="#6FC0B0" opacity="0.79"></circle><circle cx="708.3" cy="581.2" r="3.38" fill="#BFD2C8" opacity="0.24"></circle><circle cx="233.2" cy="469.5" r="3.31" fill="#BFD2C8" opacity="0.92"></circle><circle cx="630" cy="326.7" r="2.59" fill="#BFD2C8" opacity="0.92"></circle><circle cx="655" cy="314.3" r="1.91" fill="#BFD2C8" opacity="0.45"></circle><circle cx="1536.8" cy="574" r="2.51" fill="#6FC0B0" opacity="0.24"></circle><circle cx="808.1" cy="298.5" r="3.02" fill="#BFD2C8" opacity="0.92"></circle><circle cx="40.6" cy="477.8" r="3.21" fill="#BFD2C8" opacity="0.65"></circle><circle cx="307.8" cy="579.2" r="2.12" fill="#BFD2C8" opacity="0.24"></circle><circle cx="759.3" cy="309.5" r="2.57" fill="#BFD2C8" opacity="0.8"></circle><circle cx="847.3" cy="286.9" r="2.69" fill="#6FC0B0" opacity="0.92"></circle><circle cx="810.5" cy="272.5" r="3.05" fill="#BFD2C8" opacity="0.79"></circle><circle cx="1423" cy="399.1" r="1.84" fill="#BFD2C8" opacity="0.49"></circle><circle cx="65.9" cy="425.7" r="1.53" fill="#BFD2C8" opacity="0.45"></circle><circle cx="658.6" cy="379.8" r="2.48" fill="#BFD2C8" opacity="0.92"></circle><circle cx="1025.2" cy="179.6" r="2.41" fill="#6FC0B0" opacity="0.92"></circle><circle cx="861.5" cy="419" r="2.94" fill="#BFD2C8" opacity="0.45"></circle><circle cx="2.8" cy="495.5" r="3.06" fill="#BFD2C8" opacity="0.92"></circle><circle cx="693.4" cy="451.1" r="3.1" fill="#BFD2C8" opacity="0.49"></circle><circle cx="473.1" cy="532.7" r="1.54" fill="#BFD2C8" opacity="0.25"></circle><circle cx="1477.2" cy="305.1" r="2.08" fill="#6FC0B0" opacity="0.92"></circle><circle cx="1263.8" cy="407.8" r="3.13" fill="#BFD2C8" opacity="0.45"></circle><circle cx="334.6" cy="488.9" r="2.14" fill="#BFD2C8" opacity="0.37"></circle><circle cx="1393.2" cy="386.2" r="1.98" fill="#BFD2C8" opacity="0.49"></circle><circle cx="1094.3" cy="233.5" r="1.88" fill="#BFD2C8" opacity="0.92"></circle><circle cx="1176.1" cy="495" r="1.32" fill="#6FC0B0" opacity="0.24"></circle><circle cx="1343.5" cy="302.3" r="3.13" fill="#BFD2C8" opacity="0.64"></circle><circle cx="1399.7" cy="282" r="2.55" fill="#BFD2C8" opacity="0.92"></circle><circle cx="1207" cy="517.1" r="2.27" fill="#BFD2C8" opacity="0.24"></circle><circle cx="1150.7" cy="252.8" r="1.46" fill="#BFD2C8" opacity="0.92"></circle><circle cx="898.5" cy="404.5" r="2.6" fill="#6FC0B0" opacity="0.51"></circle><circle cx="470.5" cy="398.3" r="2.48" fill="#BFD2C8" opacity="0.92"></circle><circle cx="1506.8" cy="321.2" r="1.99" fill="#BFD2C8" opacity="0.92"></circle><circle cx="1345.2" cy="245.1" r="2.34" fill="#BFD2C8" opacity="0.92"></circle><circle cx="639.3" cy="346" r="1.72" fill="#BFD2C8" opacity="0.92"></circle><circle cx="1276.4" cy="273.5" r="2.33" fill="#6FC0B0" opacity="0.92"></circle><circle cx="65.4" cy="471.3" r="3.2" fill="#BFD2C8" opacity="0.92"></circle><circle cx="765.9" cy="311.4" r="3.31" fill="#BFD2C8" opacity="0.92"></circle><circle cx="1252.4" cy="538.8" r="2.49" fill="#BFD2C8" opacity="0.24"></circle><circle cx="933.4" cy="317.8" r="2.45" fill="#BFD2C8" opacity="0.92"></circle><circle cx="410.9" cy="385.6" r="3.37" fill="#6FC0B0" opacity="0.92"></circle><circle cx="552.1" cy="357.6" r="2.81" fill="#BFD2C8" opacity="0.92"></circle><circle cx="1405.4" cy="316.2" r="2.19" fill="#BFD2C8" opacity="0.67"></circle><circle cx="1439.3" cy="371.3" r="2.93" fill="#BFD2C8" opacity="0.58"></circle><circle cx="924.3" cy="300.1" r="2.18" fill="#BFD2C8" opacity="0.92"></circle><circle cx="157.2" cy="445.1" r="1.53" fill="#6FC0B0" opacity="0.92"></circle><circle cx="838.6" cy="283.7" r="2.32" fill="#BFD2C8" opacity="0.92"></circle><circle cx="1282.3" cy="589.9" r="2.31" fill="#BFD2C8" opacity="0.24"></circle><circle cx="953.2" cy="301.2" r="2.32" fill="#BFD2C8" opacity="0.92"></circle><circle cx="1561.4" cy="348.5" r="2.53" fill="#BFD2C8" opacity="0.92"></circle><circle cx="500.1" cy="408.7" r="3.2" fill="#6FC0B0" opacity="0.66"></circle><circle cx="1262" cy="267.3" r="1.99" fill="#BFD2C8" opacity="0.78"></circle><circle cx="1141.7" cy="502.2" r="1.89" fill="#BFD2C8" opacity="0.24"></circle><circle cx="1094.3" cy="228.1" r="3.38" fill="#BFD2C8" opacity="0.92"></circle><circle cx="297.2" cy="408.2" r="1.91" fill="#BFD2C8" opacity="0.92"></circle><circle cx="1201.5" cy="432.8" r="2.66" fill="#6FC0B0" opacity="0.39"></circle><circle cx="1470" cy="522.1" r="1.58" fill="#BFD2C8" opacity="0.24"></circle><circle cx="638.3" cy="359.1" r="2.66" fill="#BFD2C8" opacity="0.92"></circle><circle cx="1389.7" cy="343.6" r="3.28" fill="#BFD2C8" opacity="0.59"></circle><circle cx="1177.5" cy="557.4" r="2.9" fill="#BFD2C8" opacity="0.24"></circle><circle cx="657.7" cy="357.3" r="1.41" fill="#6FC0B0" opacity="0.92"></circle><circle cx="46.7" cy="495" r="2.79" fill="#BFD2C8" opacity="0.55"></circle><circle cx="678.9" cy="358.7" r="1.34" fill="#BFD2C8" opacity="0.77"></circle><circle cx="923.7" cy="468.5" r="1.97" fill="#BFD2C8" opacity="0.36"></circle><circle cx="365.6" cy="562.4" r="1.66" fill="#BFD2C8" opacity="0.24"></circle><circle cx="1375.8" cy="273.3" r="1.58" fill="#6FC0B0" opacity="0.92"></circle><circle cx="603.7" cy="317.1" r="1.71" fill="#BFD2C8" opacity="0.92"></circle><circle cx="157.2" cy="415.4" r="2.79" fill="#BFD2C8" opacity="0.92"></circle><circle cx="503" cy="360.2" r="2.04" fill="#BFD2C8" opacity="0.92"></circle><circle cx="1300.7" cy="212.9" r="2.7" fill="#BFD2C8" opacity="0.45"></circle><circle cx="1280.2" cy="232.3" r="2.45" fill="#6FC0B0" opacity="0.45"></circle><circle cx="1524.9" cy="343.9" r="1.66" fill="#BFD2C8" opacity="0.92"></circle><circle cx="995.3" cy="254.8" r="3.28" fill="#BFD2C8" opacity="0.92"></circle><circle cx="966.5" cy="506.6" r="1.36" fill="#BFD2C8" opacity="0.24"></circle><circle cx="601.1" cy="575.5" r="2.61" fill="#BFD2C8" opacity="0.24"></circle><circle cx="1213.4" cy="282" r="1.87" fill="#6FC0B0" opacity="0.92"></circle><circle cx="1190.5" cy="472.6" r="2.66" fill="#BFD2C8" opacity="0.29"></circle><circle cx="341.4" cy="434.6" r="1.82" fill="#BFD2C8" opacity="0.54"></circle><circle cx="1170" cy="413.2" r="1.72" fill="#BFD2C8" opacity="0.42"></circle><circle cx="486.7" cy="407.5" r="3.2" fill="#BFD2C8" opacity="0.92"></circle><circle cx="1396.9" cy="249.2" r="2.5" fill="#6FC0B0" opacity="0.92"></circle><circle cx="491.8" cy="341.6" r="1.36" fill="#BFD2C8" opacity="0.45"></circle><circle cx="1393.3" cy="261.6" r="1.9" fill="#BFD2C8" opacity="0.92"></circle><circle cx="712.2" cy="324.9" r="2.05" fill="#BFD2C8" opacity="0.45"></circle><circle cx="563.2" cy="380.3" r="1.83" fill="#BFD2C8" opacity="0.63"></circle><circle cx="1594.9" cy="375.9" r="3.32" fill="#6FC0B0" opacity="0.92"></circle><circle cx="866.7" cy="304" r="1.68" fill="#BFD2C8" opacity="0.92"></circle><circle cx="1070.8" cy="177.3" r="2.29" fill="#BFD2C8" opacity="0.81"></circle><circle cx="1401.6" cy="373.6" r="2.43" fill="#BFD2C8" opacity="0.53"></circle><circle cx="1426" cy="259.6" r="3.02" fill="#BFD2C8" opacity="0.45"></circle><circle cx="1397.5" cy="533.1" r="2.27" fill="#6FC0B0" opacity="0.24"></circle><circle cx="290" cy="427.9" r="3.17" fill="#BFD2C8" opacity="0.92"></circle><circle cx="1361" cy="229.1" r="1.92" fill="#BFD2C8" opacity="0.8"></circle><circle cx="360.5" cy="374.6" r="3.12" fill="#BFD2C8" opacity="0.69"></circle><circle cx="452.2" cy="575.9" r="2.07" fill="#BFD2C8" opacity="0.24"></circle><circle cx="235.3" cy="446.8" r="1.7" fill="#6FC0B0" opacity="0.92"></circle><circle cx="114.5" cy="446.6" r="3.32" fill="#BFD2C8" opacity="0.92"></circle><circle cx="486.7" cy="360.6" r="1.88" fill="#BFD2C8" opacity="0.45"></circle><circle cx="369.1" cy="360.3" r="1.41" fill="#BFD2C8" opacity="0.92"></circle><circle cx="1060.9" cy="173" r="2.06" fill="#BFD2C8" opacity="0.81"></circle><circle cx="538.2" cy="370.2" r="1.81" fill="#6FC0B0" opacity="0.92"></circle><circle cx="1293.6" cy="270.9" r="3.39" fill="#BFD2C8" opacity="0.92"></circle><circle cx="104" cy="558.2" r="1.82" fill="#BFD2C8" opacity="0.24"></circle><circle cx="195.8" cy="477" r="2.66" fill="#BFD2C8" opacity="0.58"></circle><circle cx="824.6" cy="267.2" r="1.7" fill="#BFD2C8" opacity="0.92"></circle><circle cx="834.4" cy="276.6" r="1.7" fill="#6FC0B0" opacity="0.92"></circle><circle cx="363.5" cy="361.3" r="2.8" fill="#BFD2C8" opacity="0.92"></circle><circle cx="388.5" cy="356.7" r="1.92" fill="#BFD2C8" opacity="0.92"></circle><circle cx="635.8" cy="298.9" r="2.72" fill="#BFD2C8" opacity="0.45"></circle><circle cx="790.1" cy="360.2" r="2.64" fill="#BFD2C8" opacity="0.61"></circle><circle cx="1079.4" cy="397" r="1.76" fill="#6FC0B0" opacity="0.4"></circle><circle cx="1242.9" cy="399.6" r="3.11" fill="#BFD2C8" opacity="0.48"></circle><circle cx="385.1" cy="359.2" r="2.38" fill="#BFD2C8" opacity="0.77"></circle><circle cx="1035.2" cy="192" r="2.37" fill="#BFD2C8" opacity="0.92"></circle><circle cx="1592.9" cy="395.6" r="1.83" fill="#BFD2C8" opacity="0.92"></circle><circle cx="1244.2" cy="282.4" r="1.66" fill="#6FC0B0" opacity="0.92"></circle><circle cx="506.4" cy="386.9" r="3.26" fill="#BFD2C8" opacity="0.92"></circle><circle cx="384.1" cy="339.7" r="3.29" fill="#BFD2C8" opacity="0.45"></circle><circle cx="1193.8" cy="255.3" r="1.78" fill="#BFD2C8" opacity="0.8"></circle><circle cx="793.8" cy="265.9" r="3.25" fill="#BFD2C8" opacity="0.45"></circle><circle cx="1574.5" cy="371.1" r="1.51" fill="#6FC0B0" opacity="0.92"></circle><circle cx="410.1" cy="595.5" r="2.85" fill="#BFD2C8" opacity="0.24"></circle><circle cx="1386.2" cy="506.9" r="1.78" fill="#BFD2C8" opacity="0.24"></circle><circle cx="1370.6" cy="468.9" r="1.63" fill="#BFD2C8" opacity="0.29"></circle><circle cx="1485.9" cy="427" r="2.79" fill="#BFD2C8" opacity="0.48"></circle><circle cx="415.2" cy="365" r="2.42" fill="#6FC0B0" opacity="0.92"></circle><circle cx="983.3" cy="231.9" r="1.62" fill="#BFD2C8" opacity="0.92"></circle><circle cx="1022.3" cy="236.1" r="1.33" fill="#BFD2C8" opacity="0.7"></circle><circle cx="130" cy="563.6" r="2.27" fill="#BFD2C8" opacity="0.24"></circle><circle cx="748.9" cy="325.9" r="2.02" fill="#BFD2C8" opacity="0.92"></circle><circle cx="460.8" cy="492" r="1.53" fill="#6FC0B0" opacity="0.4"></circle><circle cx="361.9" cy="321.4" r="2.61" fill="#BFD2C8" opacity="0.45"></circle><circle cx="1381.2" cy="402" r="1.57" fill="#BFD2C8" opacity="0.45"></circle><circle cx="991.6" cy="239.7" r="2.05" fill="#BFD2C8" opacity="0.92"></circle><circle cx="611.9" cy="343.4" r="3.31" fill="#BFD2C8" opacity="0.92"></circle><circle cx="1364.1" cy="255.6" r="1.95" fill="#6FC0B0" opacity="0.92"></circle><circle cx="583.6" cy="428.2" r="2.17" fill="#BFD2C8" opacity="0.47"></circle><circle cx="665.7" cy="362.1" r="2.06" fill="#BFD2C8" opacity="0.92"></circle><circle cx="265.6" cy="454.6" r="2.48" fill="#BFD2C8" opacity="0.92"></circle><circle cx="710.4" cy="427.7" r="3.28" fill="#BFD2C8" opacity="0.55"></circle><circle cx="87.3" cy="581.1" r="2.22" fill="#6FC0B0" opacity="0.24"></circle><circle cx="757.1" cy="499.6" r="3.06" fill="#BFD2C8" opacity="0.28"></circle><circle cx="206.2" cy="440.3" r="2.57" fill="#BFD2C8" opacity="0.92"></circle><circle cx="849.2" cy="285.2" r="1.89" fill="#BFD2C8" opacity="0.92"></circle><circle cx="1571.7" cy="365.8" r="2.81" fill="#BFD2C8" opacity="0.92"></circle><circle cx="281.5" cy="500" r="3.24" fill="#6FC0B0" opacity="0.42"></circle><circle cx="898" cy="314.6" r="2.13" fill="#BFD2C8" opacity="0.92"></circle><circle cx="1284.9" cy="270.6" r="3.06" fill="#BFD2C8" opacity="0.75"></circle><circle cx="1396.7" cy="579.9" r="1.54" fill="#BFD2C8" opacity="0.24"></circle><circle cx="1286.4" cy="482.6" r="2.16" fill="#BFD2C8" opacity="0.27"></circle><circle cx="1511.4" cy="525.9" r="3.23" fill="#6FC0B0" opacity="0.24"></circle><circle cx="1113.6" cy="215" r="2.32" fill="#BFD2C8" opacity="0.92"></circle><circle cx="402.5" cy="498.4" r="2.98" fill="#BFD2C8" opacity="0.34"></circle><circle cx="889.9" cy="282.2" r="2.86" fill="#BFD2C8" opacity="0.45"></circle><circle cx="421" cy="577.5" r="1.61" fill="#BFD2C8" opacity="0.24"></circle><circle cx="576.8" cy="531.1" r="1.75" fill="#6FC0B0" opacity="0.24"></circle><circle cx="113.9" cy="549.1" r="3.3" fill="#BFD2C8" opacity="0.24"></circle><circle cx="881.7" cy="346.3" r="2.52" fill="#BFD2C8" opacity="0.65"></circle><circle cx="997.2" cy="214.1" r="2.59" fill="#BFD2C8" opacity="0.92"></circle><circle cx="1557" cy="347.7" r="3.12" fill="#BFD2C8" opacity="0.92"></circle><circle cx="1206.2" cy="253.5" r="3.01" fill="#6FC0B0" opacity="0.92"></circle><circle cx="1262.7" cy="468.7" r="1.58" fill="#BFD2C8" opacity="0.31"></circle><circle cx="1536.7" cy="341.6" r="2.26" fill="#BFD2C8" opacity="0.92"></circle><circle cx="924.3" cy="319.2" r="2.96" fill="#BFD2C8" opacity="0.77"></circle><circle cx="1504" cy="382.8" r="3.25" fill="#BFD2C8" opacity="0.63"></circle><circle cx="1055.3" cy="395.4" r="3.31" fill="#6FC0B0" opacity="0.38"></circle><circle cx="585.7" cy="299.4" r="3.07" fill="#BFD2C8" opacity="0.45"></circle><circle cx="593.1" cy="308.8" r="3.23" fill="#BFD2C8" opacity="0.92"></circle><circle cx="1555" cy="356.7" r="1.72" fill="#BFD2C8" opacity="0.92"></circle><circle cx="798.8" cy="282.2" r="1.66" fill="#BFD2C8" opacity="0.92"></circle><circle cx="1335.1" cy="232.8" r="1.56" fill="#6FC0B0" opacity="0.92"></circle><circle cx="266.6" cy="420.2" r="2.49" fill="#BFD2C8" opacity="0.92"></circle><circle cx="825.4" cy="524.4" r="1.72" fill="#BFD2C8" opacity="0.24"></circle><circle cx="384.4" cy="370.6" r="2.66" fill="#BFD2C8" opacity="0.92"></circle><circle cx="120.4" cy="446.5" r="3.19" fill="#BFD2C8" opacity="0.92"></circle><circle cx="181.7" cy="393.1" r="2.13" fill="#6FC0B0" opacity="0.45"></circle><circle cx="1526.8" cy="302.4" r="1.34" fill="#BFD2C8" opacity="0.45"></circle><circle cx="464.5" cy="594.9" r="2.02" fill="#BFD2C8" opacity="0.24"></circle><circle cx="1449" cy="256.6" r="2.82" fill="#BFD2C8" opacity="0.45"></circle><circle cx="1207.7" cy="259.7" r="1.66" fill="#BFD2C8" opacity="0.8"></circle><circle cx="1453.8" cy="354.8" r="2.19" fill="#6FC0B0" opacity="0.65"></circle><circle cx="4" cy="591.9" r="1.85" fill="#BFD2C8" opacity="0.24"></circle><circle cx="1138.2" cy="255" r="1.34" fill="#BFD2C8" opacity="0.92"></circle><circle cx="313.7" cy="478.3" r="2.1" fill="#BFD2C8" opacity="0.44"></circle><circle cx="1499.8" cy="328.7" r="2.74" fill="#BFD2C8" opacity="0.92"></circle><circle cx="984.6" cy="252.3" r="1.74" fill="#6FC0B0" opacity="0.92"></circle><circle cx="631.9" cy="549.5" r="1.61" fill="#BFD2C8" opacity="0.24"></circle><circle cx="472.1" cy="525.7" r="3.1" fill="#BFD2C8" opacity="0.28"></circle><circle cx="1493.8" cy="382.8" r="2.72" fill="#BFD2C8" opacity="0.62"></circle><circle cx="401.3" cy="361.8" r="3.03" fill="#BFD2C8" opacity="0.92"></circle><circle cx="751.6" cy="358.5" r="1.41" fill="#6FC0B0" opacity="0.68"></circle><circle cx="1080.6" cy="328.4" r="1.71" fill="#BFD2C8" opacity="0.53"></circle><circle cx="892.8" cy="299.7" r="1.51" fill="#BFD2C8" opacity="0.92"></circle><circle cx="731.1" cy="334.5" r="2.48" fill="#BFD2C8" opacity="0.79"></circle><circle cx="396.9" cy="510.9" r="2.39" fill="#BFD2C8" opacity="0.29"></circle><circle cx="115.6" cy="586.4" r="1.84" fill="#6FC0B0" opacity="0.24"></circle><circle cx="1567" cy="346.5" r="2.22" fill="#BFD2C8" opacity="0.92"></circle><circle cx="234" cy="464.9" r="1.98" fill="#BFD2C8" opacity="0.92"></circle><circle cx="1183.2" cy="268.1" r="1.83" fill="#BFD2C8" opacity="0.92"></circle><circle cx="841.1" cy="262.7" r="1.82" fill="#BFD2C8" opacity="0.92"></circle><circle cx="954.1" cy="511.1" r="3.09" fill="#6FC0B0" opacity="0.24"></circle><circle cx="224.6" cy="464.8" r="2.1" fill="#BFD2C8" opacity="0.92"></circle><circle cx="1457" cy="296.8" r="2.66" fill="#BFD2C8" opacity="0.92"></circle><circle cx="377" cy="406.9" r="1.69" fill="#BFD2C8" opacity="0.61"></circle><circle cx="1506.2" cy="361.6" r="2.58" fill="#BFD2C8" opacity="0.92"></circle><circle cx="212.9" cy="564.1" r="2.4" fill="#6FC0B0" opacity="0.24"></circle><circle cx="997.7" cy="217.2" r="1.61" fill="#BFD2C8" opacity="0.92"></circle><circle cx="202.5" cy="450.9" r="2.45" fill="#BFD2C8" opacity="0.92"></circle><circle cx="640.4" cy="332.2" r="1.84" fill="#BFD2C8" opacity="0.92"></circle><circle cx="311" cy="403.6" r="2.54" fill="#BFD2C8" opacity="0.92"></circle><circle cx="499.2" cy="599.9" r="1.87" fill="#6FC0B0" opacity="0.24"></circle><circle cx="896.1" cy="325.9" r="1.94" fill="#BFD2C8" opacity="0.92"></circle><circle cx="1231.6" cy="283" r="1.82" fill="#BFD2C8" opacity="0.92"></circle><circle cx="90.3" cy="443" r="2.86" fill="#BFD2C8" opacity="0.92"></circle><circle cx="830.9" cy="583.7" r="2.17" fill="#BFD2C8" opacity="0.24"></circle><circle cx="1371" cy="330.8" r="1.91" fill="#6FC0B0" opacity="0.6"></circle><circle cx="1479.1" cy="574.3" r="2.51" fill="#BFD2C8" opacity="0.24"></circle><circle cx="1056.8" cy="236.4" r="2.6" fill="#BFD2C8" opacity="0.68"></circle><circle cx="167.7" cy="426.5" r="2.88" fill="#BFD2C8" opacity="0.92"></circle><circle cx="1068" cy="174.6" r="2.83" fill="#BFD2C8" opacity="0.92"></circle><circle cx="720.1" cy="365.9" r="1.53" fill="#6FC0B0" opacity="0.92"></circle><circle cx="271.8" cy="446" r="1.83" fill="#BFD2C8" opacity="0.92"></circle><circle cx="1357.9" cy="325" r="2.08" fill="#BFD2C8" opacity="0.59"></circle><circle cx="1341.9" cy="231.5" r="2.45" fill="#BFD2C8" opacity="0.92"></circle><circle cx="413.9" cy="398.8" r="2.13" fill="#BFD2C8" opacity="0.92"></circle><circle cx="786.5" cy="306.2" r="2.78" fill="#6FC0B0" opacity="0.92"></circle><circle cx="472.8" cy="409.3" r="3.18" fill="#BFD2C8" opacity="0.92"></circle><circle cx="1532.1" cy="378.5" r="2.72" fill="#BFD2C8" opacity="0.67"></circle><circle cx="897.6" cy="440" r="2.07" fill="#BFD2C8" opacity="0.42"></circle><circle cx="914" cy="468.1" r="2.79" fill="#BFD2C8" opacity="0.35"></circle><circle cx="1472" cy="476.6" r="1.51" fill="#6FC0B0" opacity="0.34"></circle><circle cx="1075.9" cy="198.8" r="2.81" fill="#BFD2C8" opacity="0.92"></circle><circle cx="830.1" cy="270.1" r="3.36" fill="#BFD2C8" opacity="0.92"></circle><circle cx="1154.2" cy="245.7" r="2.03" fill="#BFD2C8" opacity="0.92"></circle><circle cx="1559.9" cy="342.8" r="2.87" fill="#BFD2C8" opacity="0.92"></circle><circle cx="765.8" cy="309.4" r="1.73" fill="#6FC0B0" opacity="0.92"></circle><circle cx="1427.8" cy="473.5" r="3.25" fill="#BFD2C8" opacity="0.31"></circle><circle cx="692.6" cy="384.5" r="1.97" fill="#BFD2C8" opacity="0.7"></circle><circle cx="886.9" cy="433.1" r="3.26" fill="#BFD2C8" opacity="0.43"></circle><circle cx="759.7" cy="363.3" r="2.38" fill="#BFD2C8" opacity="0.65"></circle><circle cx="1351.6" cy="239.5" r="3.1" fill="#6FC0B0" opacity="0.92"></circle><circle cx="559.6" cy="322" r="3.09" fill="#BFD2C8" opacity="0.92"></circle><circle cx="1485.9" cy="333" r="2.72" fill="#BFD2C8" opacity="0.92"></circle><circle cx="426.4" cy="428.2" r="1.65" fill="#BFD2C8" opacity="0.6"></circle><circle cx="241.7" cy="504.4" r="3.15" fill="#BFD2C8" opacity="0.48"></circle><circle cx="470.9" cy="389.4" r="3.02" fill="#6FC0B0" opacity="0.92"></circle><circle cx="894.9" cy="576.4" r="2.69" fill="#BFD2C8" opacity="0.24"></circle><circle cx="91.6" cy="579.3" r="2.09" fill="#BFD2C8" opacity="0.24"></circle><circle cx="575.5" cy="330.4" r="1.42" fill="#BFD2C8" opacity="0.92"></circle><circle cx="1107" cy="234.7" r="3.23" fill="#BFD2C8" opacity="0.92"></circle><circle cx="733.5" cy="553.4" r="1.83" fill="#6FC0B0" opacity="0.24"></circle><circle cx="624.3" cy="342.8" r="2.13" fill="#BFD2C8" opacity="0.92"></circle><circle cx="1101.4" cy="234.8" r="2.25" fill="#BFD2C8" opacity="0.92"></circle><circle cx="223.5" cy="558.8" r="1.49" fill="#BFD2C8" opacity="0.24"></circle><circle cx="971.5" cy="360" r="1.67" fill="#BFD2C8" opacity="0.55"></circle><circle cx="1232.8" cy="277.9" r="3.12" fill="#6FC0B0" opacity="0.92"></circle><circle cx="1585.3" cy="577.3" r="2.53" fill="#BFD2C8" opacity="0.24"></circle><circle cx="326.8" cy="383.8" r="2.63" fill="#BFD2C8" opacity="0.92"></circle><circle cx="1368.5" cy="238.6" r="2.7" fill="#BFD2C8" opacity="0.92"></circle><circle cx="1279.9" cy="273" r="1.89" fill="#BFD2C8" opacity="0.92"></circle><circle cx="547.1" cy="432.4" r="2.64" fill="#6FC0B0" opacity="0.5"></circle><circle cx="317.3" cy="375.2" r="1.87" fill="#BFD2C8" opacity="0.92"></circle><circle cx="448.5" cy="560.8" r="1.77" fill="#BFD2C8" opacity="0.24"></circle><circle cx="657.8" cy="375.3" r="2.34" fill="#BFD2C8" opacity="0.92"></circle><circle cx="76.1" cy="586.2" r="2.61" fill="#BFD2C8" opacity="0.24"></circle><circle cx="985.1" cy="538.8" r="2.06" fill="#6FC0B0" opacity="0.24"></circle><circle cx="1324.6" cy="233" r="3.03" fill="#BFD2C8" opacity="0.92"></circle><circle cx="59.1" cy="448.1" r="2.61" fill="#BFD2C8" opacity="0.92"></circle><circle cx="1447.6" cy="444.6" r="3.18" fill="#BFD2C8" opacity="0.4"></circle><circle cx="882.7" cy="311.6" r="3.28" fill="#BFD2C8" opacity="0.74"></circle><circle cx="282.1" cy="440.5" r="2.68" fill="#6FC0B0" opacity="0.66"></circle><circle cx="819.4" cy="373.4" r="2.72" fill="#BFD2C8" opacity="0.53"></circle><circle cx="1589.6" cy="398" r="1.7" fill="#BFD2C8" opacity="0.92"></circle><circle cx="526" cy="353" r="1.41" fill="#BFD2C8" opacity="0.92"></circle><circle cx="296.3" cy="499.7" r="2.16" fill="#BFD2C8" opacity="0.39"></circle><circle cx="631.9" cy="334.3" r="2.52" fill="#6FC0B0" opacity="0.92"></circle><circle cx="645.9" cy="518.8" r="1.97" fill="#BFD2C8" opacity="0.25"></circle><circle cx="865.2" cy="283.1" r="1.35" fill="#BFD2C8" opacity="0.92"></circle><circle cx="607.7" cy="483.4" r="2.47" fill="#BFD2C8" opacity="0.33"></circle><circle cx="416.6" cy="387.1" r="2.65" fill="#BFD2C8" opacity="0.92"></circle><circle cx="766.7" cy="300.9" r="1.34" fill="#6FC0B0" opacity="0.92"></circle><circle cx="1369.3" cy="410.6" r="2.83" fill="#BFD2C8" opacity="0.42"></circle><circle cx="731.3" cy="360.3" r="2.44" fill="#BFD2C8" opacity="0.92"></circle><circle cx="518.8" cy="491.4" r="2.43" fill="#BFD2C8" opacity="0.35"></circle><circle cx="430.2" cy="378.6" r="1.8" fill="#BFD2C8" opacity="0.92"></circle><circle cx="664.1" cy="364.8" r="3.35" fill="#6FC0B0" opacity="0.73"></circle><circle cx="105.5" cy="420" r="1.72" fill="#BFD2C8" opacity="0.92"></circle><circle cx="820" cy="239.9" r="2.38" fill="#BFD2C8" opacity="0.45"></circle><circle cx="473.3" cy="382" r="1.54" fill="#BFD2C8" opacity="0.92"></circle><circle cx="245.9" cy="448.9" r="3.01" fill="#BFD2C8" opacity="0.92"></circle>
<rect width="1600" height="600" fill="url(#scrim)"></rect>
<text x="98" y="150" font-family="&#39;IBM Plex Mono&#39;,monospace" font-weight="500" font-size="19" letter-spacing="3.2" fill="#7FBFB0">VIII CONGRESO · JÓVENES INVESTIGADORES</text>
<text x="94" y="300" font-family="&#39;Space Grotesk&#39;,sans-serif" font-weight="700" font-size="170" letter-spacing="-5" fill="#F3F0E8">JEDE</text>
<text x="556" y="300" font-family="&#39;IBM Plex Mono&#39;,monospace" font-weight="500" font-size="64" fill="#4C9A8E">VIII</text>
<text x="98" y="362" font-family="&#39;IBM Plex Sans&#39;,sans-serif" font-weight="500" font-size="30" fill="#cfe0d7">Diseño de Experimentos &amp; Bioestadística</text>
<rect x="96" y="390" width="252" height="50" rx="5" fill="#CDBA8E"></rect>
<text x="112" y="424" font-family="&#39;IBM Plex Mono&#39;,monospace" font-weight="500" font-size="28" fill="#13261F">6–9 JUL 2027</text>
<text x="372" y="424" font-family="&#39;Space Grotesk&#39;,sans-serif" font-weight="500" font-size="28" fill="#F3F0E8">Asturias</text>
</svg>