<svg xmlns="http://www.w3.org/2000/svg" viewBox="0 0 1200 630" width="1200" height="630"><defs></defs>
<rect width="1200" height="630" fill="#F3F0E8"></rect>
<path d="M 0 486 L 110 426 L 220 460 L 330 346 L 430 398 L 540 320 L 650 372 L 760 266 L 860 314 L 960 170 L 1050 232 L 1140 280 L 1200 318 L 1200 370 L 1140 332 L 1050 284 L 960 222 L 860 366 L 760 318 L 650 424 L 540 372 L 430 450 L 330 398 L 220 512 L 110 478 L 0 538 Z" fill="#4C9A8E" opacity="0.12"></path>
<path d="M 0 512 L 110 452 L 220 486 L 330 372 L 430 424 L 540 346 L 650 398 L 760 292 L 860 340 L 960 196 L 1050 258 L 1140 306 L 1200 344" fill="none" stroke="#2E6E4E" stroke-width="2" stroke-linecap="round" stroke-linejoin="round" opacity="0.45"></path>
<circle cx="806.7" cy="551" r="1.49" fill="#4C9A8E" opacity="0.24"></circle><circle cx="1117.8" cy="517" r="2.01" fill="#2E6E4E" opacity="0.28"></circle><circle cx="876.3" cy="448.8" r="2.77" fill="#2E6E4E" opacity="0.47"></circle><circle cx="57" cy="594.3" r="3" fill="#2E6E4E" opacity="0.24"></circle><circle cx="340.3" cy="587.9" r="2.87" fill="#4C9A8E" opacity="0.24"></circle><circle cx="215.4" cy="525.1" r="1.93" fill="#2E6E4E" opacity="0.59"></circle><circle cx="808.4" cy="624.7" r="2.96" fill="#2E6E4E" opacity="0.24"></circle><circle cx="1000.8" cy="358.5" r="2.13" fill="#2E6E4E" opacity="0.55"></circle><circle cx="448.8" cy="445.7" r="1.42" fill="#4C9A8E" opacity="0.92"></circle><circle cx="1064.5" cy="246.5" r="2.95" fill="#2E6E4E" opacity="0.45"></circle><circle cx="1148.2" cy="618.1" r="2.95" fill="#2E6E4E" opacity="0.24"></circle><circle cx="323.6" cy="481.2" r="3.05" fill="#2E6E4E" opacity="0.49"></circle><circle cx="443.8" cy="462.6" r="2.88" fill="#4C9A8E" opacity="0.64"></circle><circle cx="456" cy="430.1" r="3.16" fill="#2E6E4E" opacity="0.73"></circle><circle cx="191.7" cy="558.7" r="3.18" fill="#2E6E4E" opacity="0.38"></circle><circle cx="397.7" cy="432.5" r="2.28" fill="#2E6E4E" opacity="0.92"></circle><circle cx="619.2" cy="523" r="1.75" fill="#4C9A8E" opacity="0.36"></circle><circle cx="643" cy="504" r="2.26" fill="#2E6E4E" opacity="0.44"></circle><circle cx="392.6" cy="442.9" r="2.09" fill="#2E6E4E" opacity="0.92"></circle><circle cx="35.4" cy="518.3" r="2.22" fill="#2E6E4E" opacity="0.92"></circle><circle cx="1118.8" cy="297" r="2.68" fill="#4C9A8E" opacity="0.81"></circle><circle cx="247.6" cy="542.5" r="2.75" fill="#2E6E4E" opacity="0.42"></circle><circle cx="1057.5" cy="434.1" r="1.43" fill="#2E6E4E" opacity="0.44"></circle><circle cx="29.5" cy="506.7" r="2.53" fill="#2E6E4E" opacity="0.92"></circle><circle cx="239.9" cy="627.4" r="2.18" fill="#4C9A8E" opacity="0.24"></circle><circle cx="413" cy="456.4" r="1.7" fill="#2E6E4E" opacity="0.92"></circle><circle cx="877.8" cy="413.5" r="1.56" fill="#2E6E4E" opacity="0.56"></circle><circle cx="993.2" cy="622.8" r="1.59" fill="#2E6E4E" opacity="0.24"></circle><circle cx="44.6" cy="521.5" r="1.71" fill="#4C9A8E" opacity="0.92"></circle><circle cx="247.6" cy="471.8" r="2.44" fill="#2E6E4E" opacity="0.92"></circle><circle cx="571" cy="434.2" r="2.42" fill="#2E6E4E" opacity="0.6"></circle><circle cx="289.9" cy="425.8" r="2.21" fill="#2E6E4E" opacity="0.92"></circle><circle cx="429.7" cy="464.7" r="1.99" fill="#4C9A8E" opacity="0.92"></circle><circle cx="318" cy="413.2" r="2.53" fill="#2E6E4E" opacity="0.92"></circle><circle cx="244.5" cy="502" r="2.08" fill="#2E6E4E" opacity="0.92"></circle><circle cx="161.6" cy="468.6" r="2.4" fill="#2E6E4E" opacity="0.92"></circle><circle cx="648.9" cy="617.2" r="3.14" fill="#4C9A8E" opacity="0.24"></circle><circle cx="440.7" cy="584.8" r="2.67" fill="#2E6E4E" opacity="0.24"></circle><circle cx="14.7" cy="600.1" r="1.41" fill="#2E6E4E" opacity="0.24"></circle><circle cx="229.6" cy="516.3" r="2.46" fill="#2E6E4E" opacity="0.92"></circle><circle cx="1119.2" cy="393.1" r="1.47" fill="#4C9A8E" opacity="0.58"></circle><circle cx="52" cy="589.5" r="1.75" fill="#2E6E4E" opacity="0.24"></circle><circle cx="206.6" cy="559.4" r="3.22" fill="#2E6E4E" opacity="0.39"></circle><circle cx="266.5" cy="449.8" r="2.04" fill="#2E6E4E" opacity="0.92"></circle><circle cx="177.1" cy="523.3" r="2.73" fill="#4C9A8E" opacity="0.56"></circle><circle cx="1163.8" cy="362.1" r="1.48" fill="#2E6E4E" opacity="0.92"></circle><circle cx="293.4" cy="483.3" r="2.05" fill="#2E6E4E" opacity="0.55"></circle><circle cx="1068.2" cy="296.6" r="2.31" fill="#2E6E4E" opacity="0.92"></circle><circle cx="876.2" cy="481.5" r="2.12" fill="#4C9A8E" opacity="0.39"></circle><circle cx="18.4" cy="541.2" r="2.15" fill="#2E6E4E" opacity="0.92"></circle><circle cx="667.9" cy="476.2" r="2.03" fill="#2E6E4E" opacity="0.51"></circle><circle cx="151.5" cy="491.7" r="2.08" fill="#2E6E4E" opacity="0.69"></circle><circle cx="1" cy="516.7" r="2.93" fill="#4C9A8E" opacity="0.92"></circle><circle cx="206.7" cy="517" r="2.37" fill="#2E6E4E" opacity="0.92"></circle><circle cx="449.4" cy="550.3" r="1.89" fill="#2E6E4E" opacity="0.3"></circle><circle cx="908.9" cy="595.4" r="1.98" fill="#2E6E4E" opacity="0.24"></circle><circle cx="152.7" cy="470.3" r="3.02" fill="#4C9A8E" opacity="0.92"></circle><circle cx="171.2" cy="508.9" r="2.85" fill="#2E6E4E" opacity="0.92"></circle><circle cx="131.1" cy="558.7" r="2.29" fill="#2E6E4E" opacity="0.34"></circle><circle cx="1086.6" cy="410.3" r="3.1" fill="#2E6E4E" opacity="0.51"></circle><circle cx="361.8" cy="534.8" r="2.84" fill="#4C9A8E" opacity="0.32"></circle><circle cx="300.3" cy="411.2" r="2.67" fill="#2E6E4E" opacity="0.92"></circle><circle cx="85.4" cy="487.4" r="2.7" fill="#2E6E4E" opacity="0.92"></circle><circle cx="341.2" cy="485.7" r="2.11" fill="#2E6E4E" opacity="0.47"></circle><circle cx="160.1" cy="501.6" r="1.65" fill="#4C9A8E" opacity="0.92"></circle><circle cx="438.9" cy="453.9" r="2" fill="#2E6E4E" opacity="0.92"></circle><circle cx="364.3" cy="487.7" r="1.93" fill="#2E6E4E" opacity="0.49"></circle><circle cx="125.8" cy="571.4" r="2.57" fill="#2E6E4E" opacity="0.28"></circle><circle cx="263.4" cy="474.7" r="1.6" fill="#4C9A8E" opacity="0.92"></circle><circle cx="394.6" cy="446.7" r="2.35" fill="#2E6E4E" opacity="0.92"></circle><circle cx="406.5" cy="611.7" r="1.99" fill="#2E6E4E" opacity="0.24"></circle><circle cx="130.5" cy="526.9" r="3.22" fill="#2E6E4E" opacity="0.49"></circle><circle cx="783.1" cy="440.4" r="1.55" fill="#4C9A8E" opacity="0.48"></circle><circle cx="183.5" cy="493.6" r="1.79" fill="#2E6E4E" opacity="0.92"></circle><circle cx="241" cy="494.8" r="2.15" fill="#2E6E4E" opacity="0.92"></circle><circle cx="62.1" cy="493.1" r="3.01" fill="#2E6E4E" opacity="0.92"></circle><circle cx="603" cy="510.9" r="2.08" fill="#4C9A8E" opacity="0.38"></circle><circle cx="1036.7" cy="270.3" r="2.55" fill="#2E6E4E" opacity="0.92"></circle><circle cx="1067.7" cy="277.5" r="1.87" fill="#2E6E4E" opacity="0.92"></circle><circle cx="710.8" cy="424.4" r="2.9" fill="#2E6E4E" opacity="0.58"></circle><circle cx="1019.2" cy="272.2" r="1.47" fill="#4C9A8E" opacity="0.92"></circle><circle cx="92.3" cy="497.2" r="2.27" fill="#2E6E4E" opacity="0.92"></circle><circle cx="628.3" cy="425" r="1.72" fill="#2E6E4E" opacity="0.92"></circle><circle cx="1116.3" cy="296.6" r="1.97" fill="#2E6E4E" opacity="0.92"></circle><circle cx="1030.8" cy="260.4" r="3.17" fill="#4C9A8E" opacity="0.92"></circle><circle cx="443.1" cy="528.4" r="2.4" fill="#2E6E4E" opacity="0.39"></circle><circle cx="425.3" cy="443.9" r="1.62" fill="#2E6E4E" opacity="0.92"></circle><circle cx="662.1" cy="414.3" r="2.43" fill="#2E6E4E" opacity="0.92"></circle><circle cx="244.4" cy="463" r="2.12" fill="#4C9A8E" opacity="0.92"></circle><circle cx="1083.5" cy="263.2" r="3.06" fill="#2E6E4E" opacity="0.45"></circle><circle cx="26.2" cy="502.5" r="2.51" fill="#2E6E4E" opacity="0.79"></circle><circle cx="1061.6" cy="562.6" r="2.83" fill="#2E6E4E" opacity="0.24"></circle><circle cx="1049.1" cy="295.2" r="2.29" fill="#4C9A8E" opacity="0.92"></circle><circle cx="117.8" cy="462.4" r="2.84" fill="#2E6E4E" opacity="0.92"></circle><circle cx="863.7" cy="578.1" r="2.36" fill="#2E6E4E" opacity="0.24"></circle><circle cx="288.3" cy="485" r="2.67" fill="#2E6E4E" opacity="0.55"></circle><circle cx="153.6" cy="512.8" r="1.49" fill="#4C9A8E" opacity="0.58"></circle><circle cx="427.8" cy="559.4" r="2.31" fill="#2E6E4E" opacity="0.28"></circle><circle cx="836.8" cy="433.3" r="3.28" fill="#2E6E4E" opacity="0.54"></circle><circle cx="222.8" cy="515.6" r="1.69" fill="#2E6E4E" opacity="0.92"></circle><circle cx="1024.1" cy="245.2" r="2.92" fill="#4C9A8E" opacity="0.92"></circle><circle cx="284.6" cy="625.8" r="2.41" fill="#2E6E4E" opacity="0.24"></circle><circle cx="71.7" cy="565.7" r="3.29" fill="#2E6E4E" opacity="0.34"></circle><circle cx="403.2" cy="551.5" r="2.17" fill="#2E6E4E" opacity="0.29"></circle><circle cx="1180" cy="373.2" r="2.93" fill="#4C9A8E" opacity="0.92"></circle><circle cx="241.7" cy="444" r="1.91" fill="#2E6E4E" opacity="0.45"></circle><circle cx="273.5" cy="499.3" r="1.47" fill="#2E6E4E" opacity="0.54"></circle><circle cx="237.7" cy="497.5" r="2.84" fill="#2E6E4E" opacity="0.92"></circle><circle cx="374.2" cy="514.5" r="2" fill="#4C9A8E" opacity="0.4"></circle><circle cx="1057.1" cy="324.3" r="2.6" fill="#2E6E4E" opacity="0.68"></circle><circle cx="156.3" cy="507.9" r="2.76" fill="#2E6E4E" opacity="0.92"></circle><circle cx="958" cy="571" r="1.94" fill="#2E6E4E" opacity="0.24"></circle><circle cx="989.2" cy="186.7" r="2.27" fill="#4C9A8E" opacity="0.45"></circle><circle cx="372.2" cy="546.5" r="2.89" fill="#2E6E4E" opacity="0.29"></circle><circle cx="317.4" cy="416.3" r="2.29" fill="#2E6E4E" opacity="0.92"></circle><circle cx="589.6" cy="533.8" r="2.82" fill="#2E6E4E" opacity="0.3"></circle><circle cx="590" cy="617.2" r="2.43" fill="#4C9A8E" opacity="0.24"></circle><circle cx="225.3" cy="483.9" r="3.18" fill="#2E6E4E" opacity="0.92"></circle><circle cx="306.9" cy="599.4" r="1.92" fill="#2E6E4E" opacity="0.24"></circle><circle cx="77.3" cy="547.4" r="3.03" fill="#2E6E4E" opacity="0.42"></circle><circle cx="52.4" cy="464.5" r="2.75" fill="#4C9A8E" opacity="0.45"></circle><circle cx="861.2" cy="598.6" r="1.88" fill="#2E6E4E" opacity="0.24"></circle><circle cx="168.4" cy="490.4" r="3.17" fill="#2E6E4E" opacity="0.92"></circle><circle cx="777.4" cy="468.2" r="1.79" fill="#2E6E4E" opacity="0.4"></circle><circle cx="420.7" cy="615.8" r="2.06" fill="#4C9A8E" opacity="0.24"></circle><circle cx="368.3" cy="522.7" r="2.71" fill="#2E6E4E" opacity="0.37"></circle><circle cx="1175.2" cy="507.7" r="2.96" fill="#2E6E4E" opacity="0.33"></circle><circle cx="253.5" cy="508.1" r="1.56" fill="#2E6E4E" opacity="0.56"></circle><circle cx="87.2" cy="529.4" r="2.45" fill="#4C9A8E" opacity="0.5"></circle><circle cx="1189" cy="331.2" r="2.37" fill="#2E6E4E" opacity="0.45"></circle><circle cx="510.6" cy="516.8" r="1.98" fill="#2E6E4E" opacity="0.35"></circle><circle cx="305.5" cy="417.6" r="2.14" fill="#2E6E4E" opacity="0.92"></circle><circle cx="878.9" cy="590.7" r="2.68" fill="#4C9A8E" opacity="0.24"></circle><circle cx="19.4" cy="476" r="2.11" fill="#2E6E4E" opacity="0.45"></circle><circle cx="274.7" cy="414.2" r="2.91" fill="#2E6E4E" opacity="0.45"></circle><circle cx="753.2" cy="542" r="3.24" fill="#2E6E4E" opacity="0.24"></circle><circle cx="583.2" cy="611.7" r="2.47" fill="#4C9A8E" opacity="0.24"></circle><circle cx="640.5" cy="435.3" r="2.44" fill="#2E6E4E" opacity="0.92"></circle><circle cx="257.9" cy="588.9" r="2.24" fill="#2E6E4E" opacity="0.24"></circle><circle cx="1092.8" cy="297.5" r="2.77" fill="#2E6E4E" opacity="0.92"></circle><circle cx="243" cy="501.1" r="2.5" fill="#4C9A8E" opacity="0.92"></circle><circle cx="311.9" cy="487.8" r="2.18" fill="#2E6E4E" opacity="0.49"></circle><circle cx="703.8" cy="464.7" r="3.24" fill="#2E6E4E" opacity="0.48"></circle><circle cx="1095.4" cy="285.5" r="2.89" fill="#2E6E4E" opacity="0.81"></circle><circle cx="275.5" cy="467.8" r="1.95" fill="#4C9A8E" opacity="0.92"></circle><circle cx="859.2" cy="598.9" r="2.37" fill="#2E6E4E" opacity="0.24"></circle><circle cx="1000.5" cy="506.2" r="2.6" fill="#2E6E4E" opacity="0.25"></circle><circle cx="428.5" cy="450.7" r="2.2" fill="#2E6E4E" opacity="0.71"></circle><circle cx="233.3" cy="486.8" r="2.55" fill="#4C9A8E" opacity="0.92"></circle><circle cx="162.3" cy="619.2" r="2.61" fill="#2E6E4E" opacity="0.24"></circle><circle cx="1168.6" cy="508.7" r="1.78" fill="#2E6E4E" opacity="0.33"></circle><circle cx="901.8" cy="434" r="2.02" fill="#2E6E4E" opacity="0.46"></circle><circle cx="184.9" cy="485.3" r="1.95" fill="#4C9A8E" opacity="0.77"></circle><circle cx="537.8" cy="430.6" r="3.25" fill="#2E6E4E" opacity="0.58"></circle><circle cx="301.4" cy="466.4" r="2.74" fill="#2E6E4E" opacity="0.59"></circle><circle cx="1064.7" cy="295.3" r="1.47" fill="#2E6E4E" opacity="0.92"></circle><circle cx="1172.5" cy="350.1" r="1.98" fill="#4C9A8E" opacity="0.92"></circle><circle cx="422.7" cy="582.3" r="2.85" fill="#2E6E4E" opacity="0.24"></circle><circle cx="290.8" cy="435.8" r="3.3" fill="#2E6E4E" opacity="0.92"></circle><circle cx="548.7" cy="492.3" r="2.94" fill="#2E6E4E" opacity="0.4"></circle><circle cx="404.8" cy="432" r="2.79" fill="#4C9A8E" opacity="0.92"></circle><circle cx="273.3" cy="449" r="2.76" fill="#2E6E4E" opacity="0.92"></circle><circle cx="240.8" cy="568.5" r="2.9" fill="#2E6E4E" opacity="0.3"></circle><circle cx="212" cy="538.6" r="2.95" fill="#2E6E4E" opacity="0.51"></circle><circle cx="144.9" cy="497.7" r="2.56" fill="#4C9A8E" opacity="0.65"></circle><circle cx="216" cy="474.7" r="2.14" fill="#2E6E4E" opacity="0.45"></circle><circle cx="164.6" cy="520.4" r="2.28" fill="#2E6E4E" opacity="0.56"></circle><circle cx="1182.6" cy="503.3" r="1.66" fill="#2E6E4E" opacity="0.35"></circle><circle cx="310.7" cy="412.5" r="1.97" fill="#4C9A8E" opacity="0.92"></circle><circle cx="110.5" cy="490.1" r="2.4" fill="#2E6E4E" opacity="0.92"></circle><circle cx="1081.8" cy="482.8" r="2.93" fill="#2E6E4E" opacity="0.34"></circle><circle cx="1142.4" cy="316.5" r="2.52" fill="#2E6E4E" opacity="0.92"></circle><circle cx="1061.1" cy="268.3" r="2" fill="#4C9A8E" opacity="0.92"></circle><circle cx="1182.8" cy="542" r="1.62" fill="#2E6E4E" opacity="0.24"></circle><circle cx="312.7" cy="420.4" r="1.75" fill="#2E6E4E" opacity="0.92"></circle><circle cx="304" cy="416.4" r="1.66" fill="#2E6E4E" opacity="0.92"></circle><circle cx="427.4" cy="457.8" r="2.12" fill="#4C9A8E" opacity="0.68"></circle><circle cx="276.3" cy="453.8" r="3.28" fill="#2E6E4E" opacity="0.92"></circle><circle cx="222" cy="614" r="1.7" fill="#2E6E4E" opacity="0.24"></circle><circle cx="850.3" cy="534.8" r="2.82" fill="#2E6E4E" opacity="0.27"></circle><circle cx="257.4" cy="470.9" r="3.18" fill="#4C9A8E" opacity="0.71"></circle><circle cx="11.8" cy="501.4" r="2.13" fill="#2E6E4E" opacity="0.45"></circle><circle cx="675.7" cy="433.8" r="2.15" fill="#2E6E4E" opacity="0.63"></circle><circle cx="478.2" cy="588.7" r="1.77" fill="#2E6E4E" opacity="0.24"></circle><circle cx="125.6" cy="574" r="3.22" fill="#4C9A8E" opacity="0.26"></circle><circle cx="370.6" cy="465.7" r="2.03" fill="#2E6E4E" opacity="0.57"></circle><circle cx="1093.7" cy="288.4" r="2.12" fill="#2E6E4E" opacity="0.92"></circle><circle cx="782.6" cy="622" r="2.77" fill="#2E6E4E" opacity="0.24"></circle><circle cx="307.7" cy="515.3" r="2.26" fill="#4C9A8E" opacity="0.4"></circle><circle cx="1043.9" cy="277.9" r="1.7" fill="#2E6E4E" opacity="0.92"></circle><circle cx="983.3" cy="202.1" r="2.49" fill="#2E6E4E" opacity="0.45"></circle><circle cx="248" cy="463.7" r="2.88" fill="#2E6E4E" opacity="0.92"></circle><circle cx="1109.1" cy="394.7" r="3.21" fill="#4C9A8E" opacity="0.57"></circle><circle cx="163.6" cy="551" r="2.17" fill="#2E6E4E" opacity="0.4"></circle><circle cx="426" cy="432.6" r="1.88" fill="#2E6E4E" opacity="0.92"></circle><circle cx="171.8" cy="501.1" r="2.74" fill="#2E6E4E" opacity="0.92"></circle><circle cx="871.1" cy="609.5" r="2.9" fill="#4C9A8E" opacity="0.24"></circle><circle cx="244.9" cy="581.5" r="1.88" fill="#2E6E4E" opacity="0.24"></circle><circle cx="229.3" cy="485" r="1.94" fill="#2E6E4E" opacity="0.92"></circle><circle cx="1018.6" cy="221.9" r="3.16" fill="#2E6E4E" opacity="0.45"></circle><circle cx="100.9" cy="459.2" r="1.51" fill="#4C9A8E" opacity="0.92"></circle><circle cx="315.4" cy="544.9" r="1.85" fill="#2E6E4E" opacity="0.29"></circle><circle cx="9.5" cy="546.8" r="2.65" fill="#2E6E4E" opacity="0.55"></circle><circle cx="162.6" cy="506.1" r="3.21" fill="#2E6E4E" opacity="0.92"></circle><circle cx="1192.6" cy="561" r="2.72" fill="#4C9A8E" opacity="0.24"></circle><circle cx="1035.9" cy="252.3" r="2.52" fill="#2E6E4E" opacity="0.92"></circle><circle cx="532.6" cy="471.9" r="3.05" fill="#2E6E4E" opacity="0.47"></circle><circle cx="579.5" cy="414.3" r="3.09" fill="#2E6E4E" opacity="0.67"></circle><circle cx="57.5" cy="608.6" r="2.58" fill="#4C9A8E" opacity="0.24"></circle><circle cx="1187.2" cy="330.9" r="3.1" fill="#2E6E4E" opacity="0.45"></circle><circle cx="298.3" cy="594.3" r="2.82" fill="#2E6E4E" opacity="0.24"></circle><circle cx="19.3" cy="538.6" r="1.7" fill="#2E6E4E" opacity="0.92"></circle><circle cx="126.8" cy="480.4" r="2.8" fill="#4C9A8E" opacity="0.92"></circle><circle cx="132.6" cy="494.5" r="1.91" fill="#2E6E4E" opacity="0.92"></circle><circle cx="1002" cy="251.9" r="1.9" fill="#2E6E4E" opacity="0.92"></circle><circle cx="125.6" cy="559.2" r="1.5" fill="#2E6E4E" opacity="0.34"></circle><circle cx="467" cy="576.2" r="2.22" fill="#4C9A8E" opacity="0.24"></circle><circle cx="870.6" cy="522.3" r="3" fill="#2E6E4E" opacity="0.29"></circle><circle cx="138" cy="486.1" r="3.14" fill="#2E6E4E" opacity="0.92"></circle><circle cx="634.3" cy="424.8" r="3.29" fill="#2E6E4E" opacity="0.92"></circle><circle cx="136.7" cy="624.8" r="1.51" fill="#4C9A8E" opacity="0.24"></circle><circle cx="1147.2" cy="284.5" r="1.45" fill="#2E6E4E" opacity="0.45"></circle><circle cx="7.7" cy="547" r="3.28" fill="#2E6E4E" opacity="0.92"></circle><circle cx="208.5" cy="502.7" r="2.54" fill="#2E6E4E" opacity="0.92"></circle><circle cx="800.2" cy="628.7" r="3.23" fill="#4C9A8E" opacity="0.24"></circle><circle cx="817.3" cy="559.7" r="2.31" fill="#2E6E4E" opacity="0.24"></circle><circle cx="405.9" cy="424.6" r="2.85" fill="#2E6E4E" opacity="0.92"></circle><circle cx="1117.8" cy="326.9" r="2.23" fill="#2E6E4E" opacity="0.92"></circle><circle cx="36.2" cy="526.7" r="2.87" fill="#4C9A8E" opacity="0.62"></circle><circle cx="134.7" cy="603.3" r="2.85" fill="#2E6E4E" opacity="0.24"></circle><circle cx="178" cy="505.1" r="2.83" fill="#2E6E4E" opacity="0.92"></circle><circle cx="75.9" cy="450.4" r="2.18" fill="#2E6E4E" opacity="0.45"></circle><circle cx="1067.8" cy="271.6" r="2.35" fill="#4C9A8E" opacity="0.92"></circle><circle cx="121.9" cy="497.2" r="2.52" fill="#2E6E4E" opacity="0.92"></circle><circle cx="422.2" cy="521.2" r="2.97" fill="#2E6E4E" opacity="0.42"></circle><circle cx="1081.4" cy="310.8" r="3.17" fill="#2E6E4E" opacity="0.92"></circle><circle cx="38.6" cy="523.6" r="1.45" fill="#4C9A8E" opacity="0.92"></circle><circle cx="857.4" cy="471.2" r="2.02" fill="#2E6E4E" opacity="0.45"></circle><circle cx="319.2" cy="424.8" r="1.84" fill="#2E6E4E" opacity="0.92"></circle><circle cx="1030.6" cy="576" r="1.98" fill="#2E6E4E" opacity="0.24"></circle><circle cx="74" cy="518.2" r="2.29" fill="#4C9A8E" opacity="0.58"></circle><circle cx="1031.1" cy="256.9" r="2.71" fill="#2E6E4E" opacity="0.92"></circle><circle cx="210.2" cy="513.9" r="2.29" fill="#2E6E4E" opacity="0.92"></circle><circle cx="189.8" cy="477.1" r="2.92" fill="#2E6E4E" opacity="0.82"></circle><circle cx="701.2" cy="561.1" r="3.15" fill="#4C9A8E" opacity="0.24"></circle><circle cx="1048" cy="284.6" r="3.11" fill="#2E6E4E" opacity="0.92"></circle><circle cx="981.8" cy="220.4" r="1.76" fill="#2E6E4E" opacity="0.92"></circle><circle cx="112.9" cy="490.4" r="1.93" fill="#2E6E4E" opacity="0.92"></circle><circle cx="1151.1" cy="329.2" r="2.57" fill="#4C9A8E" opacity="0.92"></circle><circle cx="846.9" cy="524.6" r="2.31" fill="#2E6E4E" opacity="0.29"></circle><circle cx="375.3" cy="616" r="2.62" fill="#2E6E4E" opacity="0.24"></circle><circle cx="458.7" cy="458.6" r="1.95" fill="#2E6E4E" opacity="0.62"></circle><circle cx="1104.6" cy="303.6" r="2.59" fill="#4C9A8E" opacity="0.92"></circle><circle cx="1111.3" cy="348.2" r="1.59" fill="#2E6E4E" opacity="0.68"></circle><circle cx="577.8" cy="594.8" r="3" fill="#2E6E4E" opacity="0.24"></circle><circle cx="1140.2" cy="336.3" r="2.31" fill="#2E6E4E" opacity="0.92"></circle><circle cx="986.6" cy="215" r="1.93" fill="#4C9A8E" opacity="0.92"></circle><circle cx="216.4" cy="507.2" r="2.92" fill="#2E6E4E" opacity="0.69"></circle><circle cx="415.2" cy="599.8" r="2.88" fill="#2E6E4E" opacity="0.24"></circle><circle cx="289.6" cy="418.7" r="2.53" fill="#2E6E4E" opacity="0.92"></circle>
<text x="600" y="124" text-anchor="middle" font-family="&#39;IBM Plex Mono&#39;,monospace" font-weight="500" font-size="21" letter-spacing="3.6" fill="#2E6E4E">VIII CONGRESO DE JÓVENES INVESTIGADORES</text>
<text x="588" y="288" text-anchor="end" font-family="&#39;Space Grotesk&#39;,sans-serif" font-weight="700" font-size="158" letter-spacing="-5" fill="#13261F">JEDE</text>
<text x="604" y="288" font-family="&#39;IBM Plex Mono&#39;,monospace" font-weight="500" font-size="60" fill="#4C9A8E">VIII</text>
<text x="600" y="348" text-anchor="middle" font-family="&#39;IBM Plex Sans&#39;,sans-serif" font-weight="500" font-size="30" fill="#48564E">Diseño de Experimentos &amp; Bioestadística</text>
<rect x="438" y="378" width="232" height="46" rx="5" fill="#2E6E4E"></rect>
<text x="554" y="410" text-anchor="middle" font-family="&#39;IBM Plex Mono&#39;,monospace" font-weight="500" font-size="26" fill="#F3F0E8">6–9 JULIO 2027</text>
<text x="686" y="410" font-family="&#39;Space Grotesk&#39;,sans-serif" font-weight="600" font-size="27" fill="#13261F">· Asturias</text>
</svg>